<svg width="692" height="692" viewBox="0 0 692 692" fill="none" xmlns="http://www.w3.org/2000/svg">
<path d="M346.251 20C356.499 20.01 521.81 20.3281 615.315 30.5091C661.899 35.077 671.213 51.1247 674.659 79.6803C692.496 229.29 697.982 467.136 684.433 623.078C680.7 666.04 659.92 672 613.283 672H78.7174C32.08 672 11.2999 666.04 7.56691 623.078C-5.98256 467.136 -0.496016 229.29 17.3417 79.6803C20.7869 51.1247 30.1009 35.077 76.6858 30.5091C170.19 20.3281 335.501 20.01 345.75 20H346.251Z" fill="#0095B6"/>
<path d="M562.677 341.339C556.625 338.722 551.555 337.005 547.467 336.187C543.378 335.206 539.535 334.715 535.936 334.715C531.357 334.715 526.532 336.105 521.462 338.886C516.392 341.666 511.895 345.1 507.97 349.189V324.657C511.895 320.405 516.392 317.215 521.462 315.089C526.532 312.8 532.093 311.655 538.144 311.655C542.887 311.655 547.63 312.145 552.373 313.127C557.116 314.108 563.331 316.234 571.018 319.505C576.905 322.122 581.893 323.921 585.982 324.902C590.071 325.72 593.914 326.129 597.512 326.129C602.255 326.129 607.08 324.739 611.986 321.958C617.056 319.178 621.554 315.743 625.479 311.655V335.942C621.554 340.194 617.056 343.465 611.986 345.755C606.916 348.044 601.356 349.189 595.304 349.189C590.725 349.189 585.982 348.698 581.076 347.717C576.333 346.572 570.2 344.446 562.677 341.339Z" fill="#FAF6EB"/>
<path d="M282.312 464L237.908 419.597V274.121L282.312 229.717H390.008L434.411 274.121V391.139L412.332 414.2H372.59L364.985 393.102L348.058 407.331H313.222L285.255 380.345V352.624L314.449 325.393H344.378L356.399 333.979V316.316L343.151 303.805H320.582L303.655 315.335L291.634 296.2L314.939 280.008H355.418L383.384 303.805V368.57L389.027 385.742H402.765V287.859L372.835 258.42H299.484L269.555 287.859V405.859L298.993 435.297H357.135V464H282.312ZM323.035 381.326H343.642L356.644 374.457V355.077L345.114 350.416H322.79L311.014 362.191V370.042L323.035 381.326Z" fill="#FAF6EB"/>
<path d="M132.513 419.597L110.434 399.726L91.0537 421.805L66.5215 399.48L82.2221 380.59V228H118.039V294.482L137.665 280.744H171.519L205.374 311.164V388.931L171.519 419.597H132.513ZM118.039 384.025L139.873 388.441H157.045L169.802 377.647V322.694L156.8 311.9H139.873L118.039 316.807V384.025Z" fill="#FAF6EB"/>
</svg>
